<svg width="20" height="22" viewBox="0 0 20 22" fill="none" xmlns="http://www.w3.org/2000/svg">
<path d="M7.56 17.75C7.15 17.75 6.81 17.41 6.81 17V12C6.81 11.59 7.15 11.25 7.56 11.25C7.97 11.25 8.31 11.59 8.31 12V17C8.31 17.41 7.97 17.75 7.56 17.75Z" fill="white"/>
<path d="M10 15.25H5C4.59 15.25 4.25 14.91 4.25 14.5C4.25 14.09 4.59 13.75 5 13.75H10C10.41 13.75 10.75 14.09 10.75 14.5C10.75 14.91 10.41 15.25 10 15.25ZM6 4.75C5.59 4.75 5.25 4.41 5.25 4V1C5.25 0.59 5.59 0.25 6 0.25C6.41 0.25 6.75 0.59 6.75 1V4C6.75 4.41 6.41 4.75 6 4.75ZM14 4.75C13.59 4.75 13.25 4.41 13.25 4V1C13.25 0.59 13.59 0.25 14 0.25C14.41 0.25 14.75 0.59 14.75 1V4C14.75 4.41 14.41 4.75 14 4.75Z" fill="white"/>
<path d="M6.85 21.81C4.38 21.81 2.75 21.27 1.73 20.11C0.55 18.78 0.36 16.79 0.32 15.02L0.19 8.84999C0.0899998 4.11999 1.66 2.14999 5.76 1.83999L13.8 1.67999H13.84C17.95 1.81999 19.59 3.71999 19.69 8.45999L19.81 14.63C19.85 16.4 19.73 18.4 18.61 19.77C17.59 21.02 15.87 21.63 13.2 21.69L7.2 21.81H6.85ZM13.8 3.16999L5.83 3.32999C3.03 3.54999 1.6 4.44999 1.69 8.81999L1.82 14.99C1.86 17.11 2.17 18.35 2.85 19.12C3.61 19.98 4.98 20.36 7.18 20.31L13.18 20.19C15.37 20.15 16.73 19.71 17.46 18.82C18.11 18.03 18.37 16.78 18.32 14.66L18.2 8.48999C18.1 4.12999 16.64 3.26999 13.8 3.16999Z" fill="white"/>
</svg>
