<svg width="14" height="20" viewBox="0 0 14 20" fill="none" xmlns="http://www.w3.org/2000/svg">
<path d="M11.9921 13.67L7.95213 10H5.24213L1.20213 13.67C0.652608 14.161 0.266893 14.8087 0.0970175 15.5258C-0.072858 16.2428 -0.0187194 16.9947 0.25213 17.68C0.517361 18.3655 0.984413 18.9543 1.59151 19.3685C2.19862 19.7828 2.91717 20.003 3.65213 20H9.54213C11.0621 20 12.3921 19.09 12.9421 17.68C13.4921 16.26 13.1221 14.69 11.9921 13.67ZM8.42213 16.14H4.78213C4.60178 16.14 4.42882 16.0684 4.3013 15.9409C4.17377 15.8133 4.10213 15.6404 4.10213 15.46C4.10213 15.09 4.41213 14.78 4.78213 14.78H8.42213C8.80213 14.78 9.10213 15.09 9.10213 15.46C9.10213 15.83 8.79213 16.14 8.42213 16.14ZM12.9521 2.32003C12.6869 1.63459 12.2198 1.0458 11.6127 0.631541C11.0056 0.217284 10.2871 -0.00292835 9.55213 2.94087e-05H3.65213C2.91652 -0.00275408 2.19741 0.218023 1.59009 0.633111C0.982773 1.0482 0.515896 1.63801 0.251316 2.3244C-0.0132648 3.01079 -0.0630623 3.76137 0.108521 4.4767C0.280104 5.19203 0.664969 5.83835 1.21213 6.33003L5.25213 10H7.96213L12.0021 6.33003C12.5477 5.83633 12.9307 5.18866 13.1003 4.47266C13.2699 3.75666 13.2183 3.00604 12.9521 2.32003ZM8.42213 5.23003H4.78213C4.60178 5.23003 4.42882 5.15839 4.3013 5.03086C4.17377 4.90334 4.10213 4.73038 4.10213 4.55003C4.10213 4.18003 4.41213 3.87003 4.78213 3.87003H8.42213C8.80213 3.87003 9.10213 4.18003 9.10213 4.55003C9.10213 4.92003 8.79213 5.23003 8.42213 5.23003Z" fill="currentcolor"/>
</svg>
